<svg width="327" height="306" viewBox="0 0 327 306" fill="none" xmlns="http://www.w3.org/2000/svg">
<path d="M58.0628 161.242L35.331 179.16L0 161.242L38.92 107.496L58.0628 125.41V161.242Z" fill="#47568C"/>
<path d="M268.605 161.242L291.337 179.16L326.668 161.242L287.748 107.496L268.605 125.41V161.242Z" fill="#2C3B73"/>
<path d="M249.466 0V98.5391H77.2015V17.918H158.163L163.334 10.75L170.992 0H249.466Z" fill="#FFDA2D"/>
<path d="M249.466 0V98.5391H163.334V10.75L170.992 0H249.466Z" fill="#FDBF00"/>
<path d="M268.605 35.832V134.371H58.0628V53.75H177.306L190.13 35.832H268.605Z" fill="#FDBF00"/>
<path d="M268.605 35.832V134.371H163.334V53.75H177.306L190.13 35.832H268.605Z" fill="#FF9100"/>
<path d="M287.748 71.6641V206.031H38.92V89.582H196.445L209.269 71.6641H287.748Z" fill="#FFDA2D"/>
<path d="M287.748 71.6641V206.031H163.334V89.582H196.445L209.269 71.6641H287.748Z" fill="#FDBF00"/>
<path d="M326.668 161.242V305.766H0V161.242H125.628L131.942 179.16H194.725L201.039 161.242H326.668Z" fill="#61729B"/>
<path d="M326.668 161.242V305.766H163.334V179.16H194.725L201.039 161.242H326.668Z" fill="#47568C"/>
<path d="M115.483 214.992H211.185V232.906H115.483V214.992Z" fill="#FFDA2D"/>
<path d="M163.334 214.992H211.185V232.906H163.334V214.992Z" fill="#FDBF00"/>
</svg>
