<svg width="346" height="340" viewBox="0 0 346 340" fill="none" xmlns="http://www.w3.org/2000/svg">
<path d="M0.497009 110L173 325V110H0.497009Z" fill="#70E2FF"/>
<path d="M173 110V325L345.497 110H173Z" fill="#0391C6"/>
<path d="M288 0H173L133 152.5L173 305H288V0Z" fill="#E0F9FF"/>
<path d="M173 0H58V305H173V0Z" fill="white"/>
<path d="M248 130H173L146.913 140L173 150H248V130Z" fill="#83818F"/>
<path d="M173 130H98V150H173V130Z" fill="#A4B6C2"/>
<path d="M248 90H173L146.913 100L173 110H248V90Z" fill="#83818F"/>
<path d="M173 90H98V110H173V90Z" fill="#A4B6C2"/>
<path d="M248 50H173L146.913 60L173 70H248V50Z" fill="#83818F"/>
<path d="M173 50H98V70H173V50Z" fill="#A4B6C2"/>
<path d="M0.497009 110L137.305 225V282.5L0.497009 340V110Z" fill="#E0F9FF"/>
<path d="M345.497 110L208.689 225V282.5L345.497 340V110Z" fill="#A3EBFE"/>
<path d="M208.689 225L131.363 290L173 340H345.497L208.689 225Z" fill="#70E2FF"/>
<path d="M137.31 225L0.497009 340H173V255L137.31 225Z" fill="#A3EBFE"/>
</svg>
