<?xml version="1.0" encoding="iso-8859-1"?>
<!-- Generator: Adobe Illustrator 19.0.0, SVG Export Plug-In . SVG Version: 6.00 Build 0)  -->
<svg version="1.1" id="Capa_1" xmlns="http://www.w3.org/2000/svg" xmlns:xlink="http://www.w3.org/1999/xlink" x="0px" y="0px"
	 viewBox="0 0 512 512" style="enable-background:new 0 0 512 512;" xml:space="preserve">
<g>
	<g>
		<path d="M294.625,266.455c-2.777-2.77-4.337-6.532-4.337-10.455s1.561-7.685,4.337-10.455l89.883-89.685
			c3.764-3.756,5.838-8.755,5.839-14.073c0-5.318-2.074-10.317-5.839-14.074c-7.744-7.726-20.344-7.724-28.086,0l-89.99,89.793
			c-5.765,5.752-15.098,5.752-20.863,0l-89.99-89.793c-7.744-7.725-20.342-7.725-28.084,0c-3.765,3.756-5.839,8.756-5.839,14.074
			c0,5.318,2.073,10.317,5.838,14.073l89.883,89.685c2.777,2.77,4.337,6.532,4.337,10.455s-1.561,7.685-4.337,10.455l-89.883,89.685
			c-3.764,3.756-5.838,8.755-5.839,14.073c0,5.318,2.074,10.318,5.84,14.074c7.741,7.726,20.341,7.724,28.084,0l89.99-89.793
			c2.883-2.876,6.657-4.315,10.432-4.315s7.549,1.438,10.432,4.315l89.99,89.793c7.744,7.725,20.342,7.725,28.084,0
			c3.765-3.756,5.839-8.756,5.839-14.074c0-5.318-2.073-10.317-5.838-14.073L294.625,266.455z"/>
	</g>
</g>
<g>
	<g>
		<path d="M438.154,0H73.846C33.127,0,0,33.127,0,73.846v364.308C0,478.873,33.127,512,73.846,512h364.308
			C478.873,512,512,478.873,512,438.154V73.846C512,33.127,478.873,0,438.154,0z M405.371,335.23
			c9.359,9.337,14.512,21.762,14.513,34.981c0,13.221-5.154,25.645-14.512,34.984c-19.248,19.204-50.565,19.203-69.813,0.001
			L256,325.812l-79.559,79.384c-9.623,9.601-22.266,14.402-34.907,14.403c-12.642,0.002-25.281-4.8-34.905-14.403
			c-9.36-9.338-14.513-21.763-14.513-34.983c0-13.22,5.153-25.644,14.512-34.982L186.033,256l-79.405-79.23
			c-9.359-9.337-14.512-21.762-14.513-34.981c0-13.221,5.154-25.645,14.512-34.984c19.248-19.204,50.565-19.203,69.813-0.001
			L256,186.188l79.559-79.384c19.248-19.203,50.565-19.204,69.811,0c0,0,0.001,0,0.002,0c9.359,9.339,14.512,21.764,14.512,34.984
			c-0.001,13.22-5.154,25.644-14.513,34.981L325.967,256L405.371,335.23z"/>
	</g>
</g>
<g>
</g>
<g>
</g>
<g>
</g>
<g>
</g>
<g>
</g>
<g>
</g>
<g>
</g>
<g>
</g>
<g>
</g>
<g>
</g>
<g>
</g>
<g>
</g>
<g>
</g>
<g>
</g>
<g>
</g>
</svg>
