<svg height="512pt" viewBox="-1 0 512 512" width="512pt" xmlns="http://www.w3.org/2000/svg"><path d="m0 220v105c0 16.570312 13.429688 30 30 30s30-13.429688 30-30l30-82.5-30-82.5c-33.136719 0-60 26.863281-60 60zm0 0" fill="#c0c8d2"/><path d="m200 65c0 35.898438-29.101562 65-65 65s-65-29.101562-65-65 29.101562-65 65-65 65 29.101562 65 65zm0 0" fill="#ffb4b3"/><path d="m60 160v352h60l30-187-30-165zm0 0" fill="#dae0e7"/><path d="m60 220v105c0 16.570312 13.429688 30 30 30s30-13.429688 30-30l30-82.5-30-82.5c-33.136719 0-60 26.863281-60 60zm0 0" fill="#1e8aff"/><path d="m260 65c0 35.898438-29.101562 65-65 65s-65-29.101562-65-65 29.101562-65 65-65 65 29.101562 65 65zm0 0" fill="#ffcad6"/><path d="m120 160v352h60l30-187-30-165zm0 0" fill="#54a5ff"/><path d="m120 220v105c0 16.570312 13.429688 30 30 30s30-13.429688 30-30l30-82.5-30-82.5c-33.136719 0-60 26.863281-60 60zm0 0" fill="#ffd17e"/><path d="m320 65c0 35.898438-29.101562 65-65 65s-65-29.101562-65-65 29.101562-65 65-65 65 29.101562 65 65zm0 0" fill="#ff9e90"/><path d="m180 160v352h60l30-187-30-165zm0 0" fill="#ffeac3"/><path d="m180 220v105c0 16.570312 13.429688 30 30 30s30-13.429688 30-30l30-82.5-30-82.5c-33.136719 0-60 26.863281-60 60zm0 0" fill="#ff7149"/><path d="m380 65c0 35.898438-29.101562 65-65 65s-65-29.101562-65-65 29.101562-65 65-65 65 29.101562 65 65zm0 0" fill="#ffb4b3"/><path d="m240 160v352h60l30-187-30-165zm0 0" fill="#ff9441"/><path d="m510 220v105c0 16.570312-13.429688 30-30 30s-30-13.429688-30-30l-30-82.5 30-82.5c33.136719 0 60 26.863281 60 60zm0 0" fill="#233952"/><path d="m240 220v105c0 16.570312 13.429688 30 30 30s30-13.429688 30-30l30-82.5-30-82.5c-33.136719 0-60 26.863281-60 60zm0 0" fill="#1a64b6"/><path d="m375 0-15.757812 65 15.757812 65c35.898438 0 65-29.101562 65-65s-29.101562-65-65-65zm0 0" fill="#ffb4b3"/><path d="m310 65c0 35.898438 29.101562 65 65 65v-130c-35.898438 0-65 29.101562-65 65zm0 0" fill="#ffcad6"/><path d="m375 160-50 82.5 50 97.5h15v172h60v-352zm0 0" fill="#1a64b6"/><path d="m300 160v352h60v-172h15v-180zm0 0" fill="#1e8aff"/></svg>