<?xml version="1.0" encoding="iso-8859-1"?>
<!-- Generator: Adobe Illustrator 19.0.0, SVG Export Plug-In . SVG Version: 6.00 Build 0)  -->
<svg version="1.1" id="Capa_1" xmlns="http://www.w3.org/2000/svg" xmlns:xlink="http://www.w3.org/1999/xlink" x="0px" y="0px"
	 viewBox="0 0 512 512" style="enable-background:new 0 0 512 512;" xml:space="preserve">
<circle style="fill:#FF623E;" cx="256" cy="256" r="256"/>
<path style="fill:#CA1C00;" d="M512,256c0-25.778-3.826-50.66-10.914-74.126l-69.752-69.752l-73.955,17.575l-46.666-46.676
	c-13.71-14.55-33.144-23.644-54.713-23.644c-35.807,0-65.746,25.04-73.315,58.56L80.666,142.18v260.63l96.946,96.947
	C202.319,507.696,228.655,512,256,512C397.385,512,512,397.385,512,256z"/>
<g>
	<polygon style="fill:#77DE00;" points="312.045,393.935 424.136,367.298 424.136,120.997 312.045,147.634 	"/>
	<polygon style="fill:#77DE00;" points="312.045,393.935 199.955,367.298 199.955,120.997 312.045,147.634 	"/>
</g>
<polygon style="fill:#67BD00;" points="312.05,147.63 312.05,393.93 256,380.62 256,134.32 "/>
<polygon style="fill:#C9FC78;" points="87.864,393.935 199.955,367.298 199.955,120.997 87.864,147.634 "/>
<path style="fill:#FFFFFF;" d="M312.045,140.47l-112.091-26.637L80.666,142.18v260.63l119.288-28.348L312.045,401.1l119.288-28.348
	v-260.63L312.045,140.47z M416.939,361.844l-104.893,24.927l-112.091-26.637L95.061,385.06V153.088l104.894-24.927l112.091,26.637
	l104.893-24.927V361.844z"/>
<g>
	<path style="fill:#FFF5CB;" d="M312.05,140.47L256,127.15v14.33l56.05,13.32l104.89-24.93v231.97l-104.89,24.93L256,373.45v14.33
		l56.05,13.32l119.28-28.35V112.12L312.05,140.47z"/>
	<polygon style="fill:#FFF5CB;" points="312.046,154.799 312.046,140.47 199.955,113.833 199.955,128.162 	"/>
	<polygon style="fill:#FFF5CB;" points="199.955,360.133 199.955,374.463 312.046,401.1 312.046,386.771 	"/>
</g>
<path style="fill:#7985EB;" d="M331.182,134.559c0-41.522-33.66-75.182-75.182-75.182s-75.182,33.66-75.182,75.182
	c0,32.486,20.605,60.156,49.457,70.663L256,250.221l25.725-44.999C310.577,194.715,331.182,167.045,331.182,134.559z"/>
<path style="fill:#3A4DE3;" d="M331.18,134.56c0,32.48-20.6,60.16-49.46,70.66l-25.72,45V59.38
	C297.52,59.38,331.18,93.04,331.18,134.56z"/>
<circle style="fill:#FFFFFF;" cx="256" cy="134.56" r="33.924"/>
<path style="fill:#FFF5CB;" d="M289.92,134.56c0,18.73-15.18,33.92-33.92,33.92v-67.84C274.74,100.64,289.92,115.82,289.92,134.56z"
	/>
<g>
</g>
<g>
</g>
<g>
</g>
<g>
</g>
<g>
</g>
<g>
</g>
<g>
</g>
<g>
</g>
<g>
</g>
<g>
</g>
<g>
</g>
<g>
</g>
<g>
</g>
<g>
</g>
<g>
</g>
</svg>
