<svg height="480pt" viewBox="0 0 480 480" width="480pt" xmlns="http://www.w3.org/2000/svg"><path d="m216 32h16v16h-16zm0 0"/><path d="m248 32h16v16h-16zm0 0"/><path d="m216 64h16v16h-16zm0 0"/><path d="m248 64h16v16h-16zm0 0"/><path d="m216 96h16v16h-16zm0 0"/><path d="m248 96h16v16h-16zm0 0"/><path d="m216 128h16v16h-16zm0 0"/><path d="m248 128h16v16h-16zm0 0"/><path d="m216 160h16v16h-16zm0 0"/><path d="m248 160h16v16h-16zm0 0"/><path d="m312 160h16v16h-16zm0 0"/><path d="m312 192h16v16h-16zm0 0"/><path d="m312 224h16v16h-16zm0 0"/><path d="m312 256h16v16h-16zm0 0"/><path d="m152 160h16v16h-16zm0 0"/><path d="m152 192h16v16h-16zm0 0"/><path d="m152 224h16v16h-16zm0 0"/><path d="m152 256h16v16h-16zm0 0"/><path d="m472 80h-8v-24c0-4.417969-3.582031-8-8-8h-88c-4.417969 0-8 3.582031-8 8v24h-8c-4.417969 0-8 3.582031-8 8v40h-16v-72c0-4.417969-3.582031-8-8-8h-24v-40c0-4.417969-3.582031-8-8-8h-96c-4.417969 0-8 3.582031-8 8v40h-24c-4.417969 0-8 3.582031-8 8v72h-16v-40c0-4.417969-3.582031-8-8-8h-8v-24c0-4.417969-3.582031-8-8-8h-88c-4.417969 0-8 3.582031-8 8v24h-8c-4.417969 0-8 3.582031-8 8v176h16v-168h104v104h16v-56h48v48h16v-176h80v176h16v-48h48v96h16v-144h104v168h16v-176c0-4.417969-3.582031-8-8-8zm-440 0v-16h72v16zm136 48v-64h16v64zm128 0v-64h16v64zm80-48v-16h72v16zm0 0"/><path d="m376 112h32v16h-32zm0 0"/><path d="m424 112h32v16h-32zm0 0"/><path d="m376 144h32v16h-32zm0 0"/><path d="m424 144h32v16h-32zm0 0"/><path d="m440 272h-.207031c5.292969-6.882812 8.175781-15.316406 8.207031-24v-16c0-22.089844-17.910156-40-40-40s-40 17.910156-40 40v16c.03125 8.683594 2.914062 17.117188 8.207031 24h-.207031c-17.710938-.011719-33.734375 10.515625-40.753906 26.777344l-11.246094 23.933594-11.199219-23.78125c-6.976562-16.34375-23.035156-26.941407-40.800781-26.929688h-.207031c5.292969-6.882812 8.175781-15.316406 8.207031-24v-16c0-22.089844-17.910156-40-40-40s-40 17.910156-40 40v16c.03125 8.683594 2.914062 17.117188 8.207031 24h-.207031c-17.660156.003906-33.636719 10.480469-40.679688 26.671875l-11.3125 24-11.199218-23.808594c-7-16.316406-23.054688-26.886719-40.808594-26.863281h-.207031c5.292969-6.882812 8.175781-15.316406 8.207031-24v-16c0-22.089844-17.910156-40-40-40s-40 17.910156-40 40v16c.03125 8.683594 2.914062 17.117188 8.207031 24h-.207031c-22.082031.027344-39.9726562 17.917969-40 40v72c0 4.417969 3.582031 8 8 8h24v72h-32v16h480v-16h-32v-72h24c4.417969 0 8-3.582031 8-8v-72c-.027344-22.082031-17.917969-39.972656-40-40zm-56-24v-16c0-13.253906 10.746094-24 24-24s24 10.746094 24 24v16c0 13.253906-10.746094 24-24 24s-24-10.746094-24-24zm-168 0v-16c0-13.253906 10.746094-24 24-24s24 10.746094 24 24v16c0 13.253906-10.746094 24-24 24s-24-10.746094-24-24zm-168 0v-16c0-13.253906 10.746094-24 24-24s24 10.746094 24 24v16c0 13.253906-10.746094 24-24 24s-24-10.746094-24-24zm32 216v-80h-16v80h-16v-152h-16v64h-16v-64c0-13.253906 10.746094-24 24-24h64c11.453125.015625 21.785156 6.898438 26.207031 17.464844l33.191407 70.535156h-22.453126l-29.746093-59.574219c-1.632813-3.375-5.386719-5.160156-9.03125-4.304687-3.648438.859375-6.210938 4.132812-6.167969 7.878906v144zm98.160156-72.320312c.222656-.074219.441406-.160157.65625-.253907.453125-.164062.886719-.367187 1.304688-.609375.59375-.394531 1.148437-.847656 1.65625-1.351562.195312-.210938.378906-.433594.550781-.664063.152344-.164062.296875-.335937.433594-.511719.117187-.199218.175781-.417968.285156-.617187.113281-.199219.191406-.265625.265625-.425781l16.6875-37.550782v114.304688h-88v-110.113281l16.839844 33.6875c1.355468 2.714843 4.128906 4.425781 7.160156 4.425781h40c.730469-.003906 1.457031-.113281 2.160156-.320312zm69.839844 72.320312v-72h-16v72h-16v-152c0-3.78125-2.644531-7.042969-6.339844-7.828125-3.695312-.785156-7.4375 1.125-8.972656 4.582031l-24.894531 56-10.945313-23.265625 17.0625-36.28125c2.199219-5.132812 5.859375-9.503906 10.53125-12.566406 4.609375-3.054687 10.027344-4.667969 15.558594-4.640625h64c11.457031.023438 21.777344 6.917969 26.191406 17.488281l16.953125 36-11.367187 24.167969-24.578125-49.230469c-1.632813-3.375-5.386719-5.160156-9.03125-4.304687-3.648438.859375-6.210938 4.132812-6.167969 7.878906v144zm103.3125-76.753906 16.6875-37.550782v114.304688h-88v-110.113281l16.800781 33.6875c.054688.113281.152344.203125.214844.304687.0625.105469.105469.28125.183594.410156.167969.222657.347656.433594.535156.640626.171875.230468.351563.449218.546875.664062.308594.289062.640625.554688.992188.796875.222656.160156.421874.335937.65625.472656.40625.226563.835937.417969 1.277343.570313.21875.078125.417969.191406.640625.253906.699219.199219 1.425782.304688 2.152344.3125h40c3.164062 0 6.027344-1.863281 7.3125-4.753906zm112.6875-11.246094h-16v-72h-16v160h-16v-80h-16v80h-16v-152c0-3.78125-2.644531-7.042969-6.339844-7.828125-3.695312-.785156-7.4375 1.125-8.972656 4.582031l-29.878906 67.246094h-22.207032l33.191407-70.535156c.039062-.089844.070312-.167969.101562-.257813 4.472657-10.445312 14.742188-17.214843 26.105469-17.207031h64c13.253906 0 24 10.746094 24 24zm0 0"/><path d="m32 112h72v16h-72zm0 0"/><path d="m32 144h72v16h-72zm0 0"/></svg>