<svg width="55" height="55" viewBox="0 0 55 55" fill="none" xmlns="http://www.w3.org/2000/svg">
<g clip-path="url(#clip0)">
<path d="M18.1493 24.7912C18.5379 25.1876 19.1679 25.193 19.5633 24.8034L26.7512 17.7398L26.4458 53.3245C26.441 53.8775 26.8842 54.3283 27.4371 54.333C27.9901 54.3378 28.4409 53.8946 28.4457 53.3416L28.7511 17.757L35.8157 24.9429C36.2033 25.3392 36.8353 25.3446 37.2296 24.955C37.624 24.5694 37.6294 23.9374 37.2418 23.542L28.4849 14.6346C28.3937 14.5408 28.2833 14.4678 28.1627 14.4158C28.0402 14.3637 27.9114 14.3356 27.7804 14.3345C27.6494 14.3334 27.5202 14.3593 27.3968 14.4092C27.2753 14.4592 27.1637 14.5302 27.0709 14.6224L18.1615 23.3783C17.7681 23.7669 17.7627 24.3989 18.1493 24.7912Z" fill="black"/>
<path d="M13.8823 41.5502L16.9012 41.5761L19.0472 41.5945L21.0261 41.6115L21.0471 41.6117L21.0471 41.6067C21.5882 41.6004 22.0299 41.1651 22.0346 40.6202C22.0393 40.0752 21.6051 39.6324 21.0642 39.6158L21.0642 39.6118L21.0432 39.6116L19.0643 39.5946L16.9184 39.5762L13.8995 39.5503C11.3266 39.5282 9.24766 37.4153 9.26976 34.8404L9.5043 7.51339C9.5264 4.93849 11.6413 2.86157 14.2142 2.88365L41.5412 3.11819C44.1151 3.14028 46.193 5.25319 46.1709 7.82809L45.9364 35.1551C45.9143 37.73 43.8004 39.8069 41.2265 39.7848L38.2086 39.7589L36.0627 39.7405L34.0838 39.7235L34.0628 39.7233L34.0627 39.7273C33.5206 39.7347 33.0799 40.1699 33.0752 40.7149C33.0705 41.2589 33.5038 41.7006 34.0456 41.7183L34.0456 41.7233L34.0666 41.7235L36.0455 41.7404L38.1924 41.7589L41.2103 41.7848C44.8882 41.8163 47.9058 38.8501 47.9373 35.1723L48.1719 7.84526C48.2034 4.1674 45.2372 1.14983 41.5594 1.11827L14.2324 0.88373C10.5545 0.852164 7.53694 3.81837 7.50537 7.49624L7.27083 34.8232C7.23827 38.5011 10.2055 41.5187 13.8823 41.5502Z" fill="black"/>
</g>
<defs>
<clipPath id="clip0">
<rect width="53.334" height="53.334" fill="white" transform="translate(54.5535 54.1127) rotate(179.527)"/>
</clipPath>
</defs>
</svg>
