<svg width="54" height="54" viewBox="0 0 54 54" fill="none" xmlns="http://www.w3.org/2000/svg">
<g clip-path="url(#clip0)">
<path d="M36.1606 29.6213C35.7753 29.2218 35.1453 29.2112 34.7468 29.5975L27.5008 36.6015L28.1002 1.02051C28.1095 0.46759 27.6701 0.0131238 27.1172 0.00380842C26.5643 -0.00550698 26.1098 0.4339 26.1005 0.986821L25.5011 36.5678L18.4961 29.3237C18.1118 28.9242 17.4799 28.9136 17.0823 29.2999C16.6848 29.6823 16.6741 30.3142 17.0585 30.7127L25.7415 39.6923C25.8319 39.7868 25.9416 39.8607 26.0618 39.9137C26.1839 39.9668 26.3124 39.9959 26.4434 39.9981C26.5744 40.0003 26.7038 39.9755 26.8277 39.9266C26.9495 39.8776 27.0617 39.8075 27.1553 39.7161L36.1368 31.0341C36.5333 30.6488 36.544 30.0169 36.1606 29.6213Z" fill="black"/>
<path d="M40.5659 12.8982L37.5473 12.8473L35.4016 12.8112L33.4229 12.7778L33.4019 12.7775L33.4018 12.7825C32.8607 12.7844 32.4154 13.2159 32.4062 13.7609C32.397 14.3058 32.8276 14.7521 33.3683 14.7732L33.3682 14.7772L33.3892 14.7776L35.368 14.8109L37.5136 14.8471L40.5322 14.8979C43.1049 14.9412 45.1663 17.0713 45.1229 19.6459L44.6625 46.97C44.6192 49.5447 42.4872 51.604 39.9145 51.5607L12.5904 51.1004C10.0168 51.057 7.95637 48.927 7.99975 46.3524L8.46009 19.0282C8.50347 16.4536 10.6345 14.3942 13.2081 14.4376L16.2257 14.4884L18.3714 14.5245L20.3501 14.5579L20.3711 14.5582L20.3711 14.5542C20.9133 14.5514 21.3576 14.1198 21.3668 13.5749C21.3759 13.031 20.9464 12.5857 20.4047 12.5635L20.4048 12.5585L20.3838 12.5582L18.4051 12.5248L16.2584 12.4887L13.2408 12.4378C9.56331 12.3759 6.52133 15.317 6.45938 18.9945L5.99903 46.3186C5.93707 49.9961 8.87825 53.0381 12.5557 53.1001L39.8798 53.5604C43.5573 53.6224 46.5993 50.6812 46.6613 47.0037L47.1216 19.6796C47.1846 16.0021 44.2424 12.9601 40.5659 12.8982Z" fill="black"/>
</g>
<defs>
<clipPath id="clip0">
<rect width="53.334" height="53.334" fill="white"/>
</clipPath>
</defs>
</svg>
